<svg xmlns="http://www.w3.org/2000/svg" xmlns:xlink="http://www.w3.org/1999/xlink" viewBox="0 0 520.2 161.14"><defs><clipPath id="a"><rect width="520.2" height="161.14" fill="none"/></clipPath></defs><title>ecal_logo</title><g clip-path="url(#a)"><path d="M488.61,158h31.6V0h-31.6ZM315.28,77.18c.45-5.42,2-8.8,5.42-11.74,3.84-3.16,9.25-4.74,16-4.74,12.86,0,19.63,5.19,19.63,13.77,0,6.32-2.48,9.25-10.83,10.38l-5.19.68c-24.83,3.61-59.36,8.35-59.36,39,0,22.57,19.41,36.56,44.23,36.56,20.31,0,29.34-7.22,34.76-12.41h.23l.68,9.25h28.66v-.68c-2-3.61-2.71-7.67-2.71-15.35V87.57c0-11.06-.9-18.05-2.71-23.7C378,44.69,357.71,38.14,337.63,38.14c-28.21,0-49.43,12-51,38.59Zm16.47,61.39c-12,0-19.41-5.19-19.41-14.89a12.6,12.6,0,0,1,3.61-9c3.16-3.16,9.25-5.19,17.83-7.45l7-1.81c8.12-2,14-3.61,16.7-4.74v14.22c0,5.64-.45,7.67-1.13,9.71-3.61,10.16-14.44,14-24.6,14m-95.92-58c-3.16-25.5-24.15-42.43-53.26-42.43-36.79,0-59.58,25.5-59.58,61.39,0,36.79,21.21,61.39,59.36,61.39,30.24,0,49.88-17.15,54.39-42.43H206.05c-2.71,9.25-8.58,18.06-23,18.06-16.48,0-27.53-11.28-27.53-36.79,0-24.37,10.61-37.46,26.86-37.46,13.54,0,20.54,9,22.34,18.28ZM58.45,61.16c15.8,0,25.5,11.06,26,26H32.5c1.35-14.89,10.83-26,26-26m24.37,63c-3.39,6.32-10.16,12.64-22.79,12.64-14.44,0-26.41-8.58-28-28.89h84.18v-2.93c0-38.14-19-66.8-57.78-66.8C22.79,38.14,0,64.55,0,99.53s21.67,61.39,59.58,61.39c28,0,47.17-14.67,55.29-36.79ZM94.56,0H56.2L40.85,29.11H69.06Z"/></g></svg>