<?xml version="1.0" encoding="utf-8"?>
<!-- Generator: Adobe Illustrator 21.1.0, SVG Export Plug-In . SVG Version: 6.00 Build 0)  -->
<svg version="1.1" id="Layer_1" xmlns="http://www.w3.org/2000/svg" xmlns:xlink="http://www.w3.org/1999/xlink" x="0px" y="0px"
	 viewBox="0 0 405 405" enable-background="new 0 0 405 405" xml:space="preserve">
<path fill-rule="evenodd" clip-rule="evenodd" fill="#181616" d="M204,81.1c-67.3,0-122,54.6-122,122c0,53.9,34.9,99.6,83.4,115.7
	c6.1,1.1,8.3-2.6,8.3-5.9c0-2.9-0.1-10.6-0.2-20.7c-33.9,7.4-41.1-16.3-41.1-16.3C127,261.7,119,258,119,258
	c-11.1-7.6,0.8-7.4,0.8-7.4c12.2,0.9,18.7,12.6,18.7,12.6c10.9,18.6,28.5,13.3,35.5,10.1c1.1-7.9,4.3-13.3,7.7-16.3
	c-27.1-3.1-55.6-13.5-55.6-60.3c0-13.3,4.8-24.2,12.6-32.7c-1.3-3.1-5.4-15.5,1.2-32.3c0,0,10.2-3.3,33.5,12.5
	c9.7-2.7,20.2-4.1,30.5-4.1c10.4,0,20.8,1.4,30.5,4.1c23.3-15.8,33.5-12.5,33.5-12.5c6.7,16.8,2.5,29.2,1.2,32.3
	c7.8,8.5,12.5,19.4,12.5,32.7c0,46.9-28.5,57.2-55.7,60.2c4.4,3.8,8.3,11.2,8.3,22.6c0,16.3-0.1,29.5-0.1,33.5
	c0,3.3,2.2,7.1,8.4,5.9c48.4-16.2,83.3-61.8,83.3-115.7C326,135.7,271.4,81.1,204,81.1z"/>
</svg>
