<?xml version="1.0" encoding="utf-8"?>
<!-- Generator: Adobe Illustrator 21.1.0, SVG Export Plug-In . SVG Version: 6.00 Build 0)  -->
<svg version="1.1" id="Layer_1" xmlns="http://www.w3.org/2000/svg" xmlns:xlink="http://www.w3.org/1999/xlink" x="0px" y="0px"
	 viewBox="0 0 405 405" style="enable-background:new 0 0 405 405;" xml:space="preserve">
<g>
	<path d="M204.1,100.9c32.3,0,36.1,0.1,48.8,0.7c11.8,0.6,18.2,2.5,22.4,4.2c5.6,2.2,9.7,4.8,13.9,9c4.2,4.2,6.8,8.2,9,13.9
		c1.7,4.3,3.6,10.7,4.2,22.4c0.6,12.8,0.7,16.6,0.7,48.8s-0.1,36.1-0.7,48.8c-0.5,11.8-2.5,18.1-4.2,22.4c-2.2,5.6-4.8,9.7-9,13.9
		c-4.2,4.2-8.2,6.8-13.9,9c-4.3,1.7-10.7,3.6-22.4,4.2c-12.8,0.6-16.6,0.7-48.8,0.7s-36.1-0.1-48.8-0.7c-11.8-0.5-18.1-2.5-22.4-4.2
		c-5.6-2.2-9.7-4.8-13.9-9c-4.2-4.2-6.8-8.2-9-13.9c-1.7-4.3-3.6-10.7-4.2-22.4c-0.5-12.8-0.7-16.6-0.7-48.8s0.1-36.1,0.7-48.8
		c0.6-11.8,2.5-18.2,4.2-22.4c2.2-5.6,4.8-9.7,9-13.9c4.2-4.2,8.2-6.8,13.9-9c4.3-1.6,10.7-3.6,22.4-4.2
		C167.9,101,171.8,100.9,204.1,100.9 M204.1,79.1c-32.9,0-37,0.1-49.8,0.8c-13,0.6-21.8,2.6-29.5,5.6c-7.9,3.1-14.7,7.3-21.4,14
		c-6.7,6.7-10.9,13.4-14,21.5c-3,7.7-5.1,16.5-5.6,29.4c-0.5,12.9-0.8,17.1-0.8,49.8c0,32.9,0.1,37,0.8,49.8
		c0.6,12.9,2.6,21.7,5.6,29.4c3.1,7.9,7.3,14.7,14,21.5c6.7,6.7,13.4,10.9,21.4,14c7.7,3,16.5,5.1,29.4,5.6
		c12.9,0.5,17.1,0.8,49.8,0.8s37-0.1,49.8-0.8c12.9-0.6,21.7-2.6,29.4-5.6c7.9-3.1,14.7-7.3,21.5-14c6.7-6.7,10.9-13.4,14-21.5
		c3-7.7,5.1-16.5,5.6-29.4c0.5-12.9,0.8-17.1,0.8-49.8s-0.1-37-0.8-49.8c-0.6-12.9-2.6-21.7-5.6-29.4c-3.1-7.9-7.3-14.7-14-21.5
		c-6.7-6.7-13.4-10.9-21.5-14c-7.7-3-16.5-5.1-29.4-5.6C241.1,79.2,236.9,79.1,204.1,79.1L204.1,79.1z"/>
	<path d="M204.1,138c-34.3,0-62.1,27.8-62.1,62.1s27.8,62.1,62.1,62.1s62.2-27.8,62.2-62.1S238.3,138,204.1,138z M204.1,240.4
		c-22.2,0-40.3-18-40.3-40.3s18-40.3,40.3-40.3s40.4,18,40.4,40.3S226.3,240.4,204.1,240.4z"/>
	<circle cx="268.6" cy="135.5" r="14.5"/>
</g>
</svg>
