<?xml version="1.0" encoding="utf-8"?>
<!-- Generator: Adobe Illustrator 21.1.0, SVG Export Plug-In . SVG Version: 6.00 Build 0)  -->
<svg version="1.1" id="Layer_1" xmlns="http://www.w3.org/2000/svg" xmlns:xlink="http://www.w3.org/1999/xlink" x="0px" y="0px"
	 viewBox="0 0 405 405" style="enable-background:new 0 0 405 405;" xml:space="preserve">
<path d="M328.3,122.9c-9.2,4.1-19,6.8-29.3,8c10.5-6.3,18.6-16.3,22.5-28.2c-9.8,5.8-20.7,10.1-32.4,12.4
	c-9.3-9.9-22.5-16.1-37.2-16.1c-28.2,0-51,22.8-51,51c0,4,0.5,7.9,1.4,11.6c-42.4-2.1-79.9-22.5-105.1-53.3
	c-4.4,7.5-6.9,16.3-6.9,25.6c0,17.7,9,33.3,22.7,42.5c-8.4-0.3-16.2-2.5-23.1-6.4c0,0.2,0,0.5,0,0.6c0,24.7,17.5,45.3,40.9,50
	c-4.3,1.2-8.8,1.8-13.5,1.8c-3.3,0-6.5-0.4-9.6-0.9c6.5,20.3,25.4,35,47.6,35.5c-17.5,13.6-39.5,21.8-63.4,21.8
	c-4.1,0-8.2-0.3-12.2-0.7c22.5,14.5,49.4,22.9,78.2,22.9c93.8,0,145.1-77.7,145.1-145.1c0-2.2-0.1-4.5-0.2-6.6
	C312.8,142.2,321.5,133.2,328.3,122.9z"/>
</svg>
