<?xml version="1.0" encoding="utf-8"?>
<!-- Generator: Adobe Illustrator 21.1.0, SVG Export Plug-In . SVG Version: 6.00 Build 0)  -->
<svg version="1.1" id="Layer_1" xmlns="http://www.w3.org/2000/svg" xmlns:xlink="http://www.w3.org/1999/xlink" x="0px" y="0px"
	 viewBox="0 0 405 405" style="enable-background:new 0 0 405 405;" xml:space="preserve">
<path d="M304.3,143.1c-1.1,22.8-16.9,54.1-47.7,93.7c-31.8,41.4-58.7,62.1-80.6,62.1c-13.7,0-25.2-12.6-34.5-37.8
	c-6.3-23.1-12.6-46.2-18.9-69.3c-7-25.2-14.5-37.8-22.6-37.8c-1.8,0-7.9,3.7-18.4,11l-11-14.2c11.6-10.2,22.9-20.3,34.1-30.5
	c15.4-13.3,27-20.4,34.7-21c18.2-1.8,29.4,10.7,33.6,37.4c4.5,28.8,7.7,46.7,9.5,53.7c5.3,23.8,11,35.8,17.3,35.8
	c4.9,0,12.3-7.8,22.1-23.2c9.8-15.5,15-27.3,15.8-35.4c1.4-13.3-3.9-20.1-15.8-20.1c-5.6,0-11.3,1.3-17.3,3.9
	c11.4-37.7,33.5-56.1,65.8-55C294.4,96.9,305.7,112.6,304.3,143.1L304.3,143.1z"/>
</svg>
